<svg width="88" height="88" viewBox="0 0 88 88" fill="none" xmlns="http://www.w3.org/2000/svg">
<g clip-path="url(#clip0_143_28)">
<path d="M29.2292 62.8417C25.8727 62.8417 23.1421 65.5723 23.1421 68.9288C23.1421 72.2852 25.8727 75.0158 29.2292 75.0158C32.5856 75.0158 35.3162 72.2852 35.3162 68.9288C35.3162 65.5723 32.5856 62.8417 29.2292 62.8417ZM29.2292 72.4615C27.2812 72.4615 25.6965 70.8768 25.6965 68.9288C25.6965 66.9807 27.2812 65.3961 29.2292 65.3961C31.1772 65.3961 32.7619 66.9807 32.7619 68.9288C32.7619 70.8768 31.177 72.4615 29.2292 72.4615Z" fill="#404040"/>
<path d="M47.1284 66.5559C47.1284 71.1927 50.9006 74.9649 55.5376 74.9649C60.1746 74.9649 63.9468 71.1927 63.9468 66.5559C63.9468 61.9191 60.1746 58.1467 55.5376 58.1467C50.9006 58.1467 47.1284 61.919 47.1284 66.5559ZM55.5376 60.7011C58.766 60.7011 61.3924 63.3276 61.3924 66.5559C61.3924 69.7843 58.766 72.4106 55.5376 72.4106C52.3093 72.4106 49.6828 69.7841 49.6828 66.5559C49.6828 63.3274 52.3093 60.7011 55.5376 60.7011Z" fill="#404040"/>
<path d="M43.79 47.6924C41.4396 47.6924 39.5273 49.6046 39.5273 51.955C39.5273 54.3055 41.4396 56.2177 43.79 56.2177C46.1404 56.2177 48.0527 54.3055 48.0527 51.955C48.0527 49.6046 46.1404 47.6924 43.79 47.6924ZM43.79 53.6633C42.848 53.6633 42.0817 52.897 42.0817 51.955C42.0817 51.0131 42.848 50.2468 43.79 50.2468C44.7318 50.2468 45.4983 51.0131 45.4983 51.955C45.4983 52.897 44.7318 53.6633 43.79 53.6633Z" fill="#404040"/>
<path d="M27.855 56.4773C27.855 53.7164 25.6087 51.4703 22.8478 51.4703C20.0869 51.4703 17.8408 53.7164 17.8408 56.4773C17.8408 59.2382 20.0869 61.4845 22.8478 61.4845C25.6087 61.4845 27.855 59.2382 27.855 56.4773ZM22.848 58.9301C21.4955 58.9301 20.3954 57.8297 20.3954 56.4773C20.3954 55.1249 21.4957 54.0247 22.848 54.0247C24.2004 54.0247 25.3008 55.1251 25.3008 56.4773C25.3006 57.8297 24.2004 58.9301 22.848 58.9301Z" fill="#404040"/>
<path d="M74.9899 21.9471C74.9308 21.7411 73.5172 16.8544 71.2684 12.3917C69.692 9.26517 66.6974 7.03873 63.2579 6.43551C61.4857 6.12525 59.6556 5.91225 57.7994 5.79731L58.0041 5.0585C58.1725 4.45076 57.8721 3.81118 57.2969 3.5526C52.8278 1.54309 48.6229 0.373387 44.7994 0.075311C40.4467 -0.263831 36.704 0.543548 33.6768 2.47524C30.6436 4.41087 28.3319 7.47317 26.8058 11.5767C25.4653 15.1811 24.7583 19.4986 24.7041 24.4097C24.697 25.0396 25.1505 25.5806 25.772 25.6837L27.5314 25.9757C27.2058 29.4675 27.1816 33.1097 27.4599 36.8373L21.3919 42.2952L18.7573 39.923C18.4433 39.64 18.0095 39.5308 17.5988 39.6316C17.1881 39.7322 16.8539 40.0293 16.7061 40.4254C14.2907 46.8927 12.9604 53.3163 12.9604 58.5123C12.9604 74.7719 26.1886 88.0001 42.4482 88.0001C58.7075 88.0001 71.9359 74.7719 71.9359 58.5123C71.9359 53.3299 70.6123 46.9239 68.2086 40.4749C68.0611 40.0788 67.727 39.7813 67.3164 39.6807C66.9065 39.5801 66.4721 39.689 66.1579 39.9715L63.574 42.296L57.3975 36.7408C56.912 36.3038 56.1748 36.3038 55.6895 36.7408L55.4668 36.941C55.3523 35.7959 55.2086 34.7077 55.0347 33.6883C55.4892 33.3848 56.2039 32.9462 57.1706 32.4673C58.8205 31.6503 61.5647 30.5459 65.2668 29.9242C67.5852 29.5343 69.756 28.3762 71.3786 26.6632C73.2964 24.6401 74.5148 23.3571 74.6569 23.2111C74.7388 23.1307 74.8103 23.0388 74.8689 22.9374C75.0418 22.6373 75.0856 22.2799 74.9899 21.9471ZM35.0509 4.62858C39.7692 1.61776 46.913 1.91407 55.2468 5.44421L54.325 8.77099L46.13 7.41049C45.4832 7.30321 44.8642 7.70032 44.6899 8.32968L42.4735 16.3341L34.2771 14.9746C33.6326 14.8675 33.0117 15.2642 32.8372 15.8936L30.6194 23.8992L27.2822 23.3453C27.5791 14.2712 30.32 7.64766 35.0509 4.62858ZM56.5432 39.408L62.7197 44.9631C63.2052 45.4001 63.9424 45.3999 64.4278 44.9631L66.4497 43.1444C68.3466 48.698 69.3813 54.0968 69.3813 58.5123C69.3813 73.3635 57.2991 85.4457 42.448 85.4457C27.5968 85.4457 15.5148 73.3635 15.5148 58.5123C15.5148 54.0834 16.5554 48.6672 18.4632 43.0955L20.5367 44.9628C21.0223 45.4001 21.7597 45.4003 22.2454 44.9631L28.4217 39.408L34.598 44.9631C35.0837 45.4001 35.8207 45.3999 36.3063 44.9631L42.4808 39.4082L48.6586 44.9635C49.1446 45.4001 49.8814 45.4003 50.3667 44.9633L56.5432 39.408ZM64.8434 27.4052C57.0301 28.7169 52.9885 32.0007 52.8203 32.1398C52.4605 32.4373 52.2919 32.9073 52.3802 33.3657C52.7067 35.0592 52.9415 36.9823 53.0818 39.0861L49.513 42.296L43.3349 36.7406C42.8492 36.304 42.1122 36.304 41.6266 36.7408L35.4523 42.2958L30.0734 37.4578C29.7445 33.6543 29.7378 29.9417 30.0567 26.395L31.3345 26.607C31.405 26.6188 31.4752 26.6245 31.5447 26.6243C32.1096 26.6243 32.6191 26.2486 32.7745 25.688L34.9925 17.6824L43.1891 19.0419C43.8336 19.149 44.4547 18.7523 44.629 18.1228L46.8454 10.1183L55.0403 11.4786C55.6865 11.5857 56.3056 11.1888 56.4801 10.5596L57.1018 8.31553C59.0489 8.41476 60.9674 8.62716 62.8173 8.95118C65.466 9.41568 67.7728 11.1316 68.9877 13.5412C70.3459 16.2365 71.4042 19.164 71.9993 20.9536C67.8206 20.8585 57.4467 20.9998 49.5808 24.2515C47.5011 25.1111 45.3598 25.6043 43.2164 25.7171C42.512 25.7541 41.9711 26.3553 42.008 27.0597C42.044 27.7414 42.6077 28.2699 43.2825 28.2699C43.3051 28.2699 43.3277 28.2693 43.3506 28.2681C45.784 28.1402 48.2085 27.583 50.5567 26.6123C57.304 23.8231 66.3383 23.4763 70.8579 23.5003C70.4274 23.954 69.9688 24.4378 69.5247 24.9062C68.2804 26.2191 66.6179 27.1067 64.8434 27.4052Z" fill="#404040"/>
<path d="M48.3609 17.4127L52.0942 17.6092C52.117 17.6104 52.1398 17.6109 52.1626 17.6109C52.8371 17.6109 53.4011 17.0824 53.4368 16.4008C53.4738 15.6963 52.933 15.0953 52.2286 15.0581L48.4953 14.8616C47.7948 14.8247 47.1896 15.3656 47.1527 16.0699C47.1157 16.7741 47.6565 17.3755 48.3609 17.4127Z" fill="#404040"/>
</g>
<defs>
<clipPath id="clip0_143_28">
<rect width="88" height="88" fill="white"/>
</clipPath>
</defs>
</svg>
