<svg width="500" height="500" viewBox="0 0 500 500" fill="none" xmlns="http://www.w3.org/2000/svg">
<path d="M162.3 74C162.3 74 86.5402 112.6 48.7502 172.09C10.9602 231.58 13.9402 308.09 59.8702 364.88C105.8 421.67 193.56 414.22 267.05 450.19C340.54 486.16 421.62 478.77 456.37 402.53C491.12 326.29 438.72 297.82 429.71 209.6C420.7 121.38 341.18 -7.77 162.3 74Z" fill="#37474F"/>
<path opacity="0.8" d="M162.3 74C162.3 74 86.5402 112.6 48.7502 172.09C10.9602 231.58 13.9402 308.09 59.8702 364.88C105.8 421.67 193.56 414.22 267.05 450.19C340.54 486.16 421.62 478.77 456.37 402.53C491.12 326.29 438.72 297.82 429.71 209.6C420.7 121.38 341.18 -7.77 162.3 74Z" fill="white"/>
<path d="M413.21 91.37C406.92 87.94 404.07 90.8 401.78 87.94C399.49 85.08 408.07 77.65 390.92 70.22C390.92 70.22 389.78 54.22 366.34 53.64C342.9 53.06 349.19 69.64 342.9 73.64C336.61 77.64 334.9 71.35 328.61 75.35C322.32 79.35 325.18 87.35 320.03 88.5C314.88 89.65 308.03 83.36 301.74 87.36C295.45 91.36 295.45 94.79 292.59 94.79C289.73 94.79 284.02 92.5 280.59 94.79C277.16 97.08 273.16 99.94 273.16 99.94H417.79C417.79 99.94 419.5 94.8 413.21 91.37Z" stroke="#263238" stroke-linecap="round" stroke-linejoin="round"/>
<path d="M327.661 89C326.835 89.4605 325.98 89.8647 325.101 90.21" stroke="#263238" stroke-linecap="round" stroke-linejoin="round"/>
<path d="M358.6 62.3199C357.177 62.9557 355.927 63.9229 354.955 65.1407C353.982 66.3586 353.316 67.7916 353.01 69.3199C352.01 74.5499 349.53 78.0399 346.73 78.3899C343.93 78.7399 333.48 77.6899 331.73 81.5299C331.257 82.652 330.921 83.8272 330.73 85.0299" stroke="#263238" stroke-linecap="round" stroke-linejoin="round"/>
<path d="M431.61 124.57C429.15 123.23 428.03 124.34 427.14 123.23C426.25 122.12 429.6 119.23 422.9 116.3C422.9 116.3 422.45 110.05 413.29 109.83C404.13 109.61 406.59 116.08 404.13 117.64C401.67 119.2 401.01 116.75 398.55 118.31C396.09 119.87 397.21 123 395.2 123.45C393.19 123.9 390.51 121.45 388.05 123C385.59 124.55 385.6 125.91 384.48 125.91C383.36 125.91 381.13 125.01 379.79 125.91C378.45 126.81 376.88 127.91 376.88 127.91H433.39C433.39 127.91 434.06 125.91 431.61 124.57Z" stroke="#263238" stroke-linecap="round" stroke-linejoin="round"/>
<path d="M398.181 123.65C397.859 123.83 397.524 123.987 397.181 124.12" stroke="#263238" stroke-linecap="round" stroke-linejoin="round"/>
<path d="M410.271 113.22C409.716 113.466 409.229 113.841 408.849 114.314C408.47 114.788 408.21 115.345 408.091 115.94C407.681 117.94 406.721 119.35 405.631 119.49C404.541 119.63 400.451 119.21 399.771 120.71C399.591 121.15 399.464 121.61 399.391 122.08" stroke="#263238" stroke-linecap="round" stroke-linejoin="round"/>
<path d="M105.71 287.26C103.25 285.92 102.14 287.04 101.24 285.92C100.34 284.8 103.7 281.92 97.0002 279C97.0002 279 96.5502 272.75 87.4002 272.52C78.2502 272.29 80.7002 278.78 78.2402 280.34C75.7802 281.9 75.1102 279.45 72.6502 281.01C70.1902 282.57 71.3102 285.7 69.3002 286.15C67.2902 286.6 64.6102 284.15 62.1602 285.7C59.7102 287.25 59.7002 288.6 58.5802 288.6C57.4602 288.6 55.2302 287.71 53.8902 288.6C52.5502 289.49 50.9902 290.6 50.9902 290.6H107.5C107.5 290.6 108.17 288.6 105.71 287.26Z" stroke="#263238" stroke-linecap="round" stroke-linejoin="round"/>
<path d="M72.2803 286.35C71.9585 286.53 71.6243 286.687 71.2803 286.82" stroke="#263238" stroke-linecap="round" stroke-linejoin="round"/>
<path d="M84.3702 275.91C83.8155 276.158 83.3281 276.535 82.9489 277.01C82.5696 277.485 82.3095 278.044 82.1902 278.64C81.7802 280.64 80.8302 282.05 79.7402 282.18C78.6502 282.31 74.5602 281.91 73.8802 283.41C73.698 283.85 73.5672 284.31 73.4902 284.78" stroke="#263238" stroke-linecap="round" stroke-linejoin="round"/>
<path d="M227.69 295.89C227.69 295.89 235.39 291.4 240.2 291.08C245.01 290.76 257.84 293.64 257.84 293.64C257.84 293.64 258.84 290.44 255.92 284.02C253.852 279.592 251.494 275.306 248.86 271.19L251.43 270.87C251.43 270.87 245 262.53 228.65 258C212.3 253.47 200.74 265.06 195.29 273.4C189.84 281.74 192.08 294.9 192.08 294.9C192.08 294.9 213.89 289.76 220.31 296.5C221.54 297.384 222.975 297.939 224.48 298.11C226.4 298.14 227.69 295.89 227.69 295.89Z" fill="#37474F"/>
<path opacity="0.4" d="M227.69 295.89C227.69 295.89 235.39 291.4 240.2 291.08C245.01 290.76 257.84 293.64 257.84 293.64C257.84 293.64 258.84 290.44 255.92 284.02C253.852 279.592 251.494 275.306 248.86 271.19L251.43 270.87C251.43 270.87 245 262.53 228.65 258C212.3 253.47 200.74 265.06 195.29 273.4C189.84 281.74 192.08 294.9 192.08 294.9C192.08 294.9 213.89 289.76 220.31 296.5C221.54 297.384 222.975 297.939 224.48 298.11C226.4 298.14 227.69 295.89 227.69 295.89Z" fill="white"/>
<path d="M207.479 284.34L219.669 291.4L209.079 290.44L220.949 293.32L222.549 298.14L219.029 408.81H226.719L224.479 298.14L229.609 289.47L236.669 286.91L230.249 286.27L232.499 282.1L224.16 295.57L225.759 284.34L228.329 279.21L225.119 280.17L224.479 273.43L222.549 292.68L218.059 282.1L218.699 289.15L207.479 284.34Z" fill="#263238"/>
<path d="M431.549 213.28C431.549 213.28 444.89 205.51 453.22 204.95C461.55 204.39 483.769 209.4 483.769 209.4C483.769 209.4 485.44 203.84 480.44 192.73C476.86 185.062 472.778 177.64 468.22 170.51L472.66 169.96C472.66 169.96 461.55 155.52 433.22 147.74C404.89 139.96 384.89 160 375.45 174.4C366.01 188.8 369.9 211.62 369.9 211.62C369.9 211.62 407.67 202.73 418.78 214.4C418.78 214.4 422.67 217.17 426 217.17C429.33 217.17 431.549 213.28 431.549 213.28Z" fill="#37474F"/>
<path opacity="0.4" d="M431.549 213.28C431.549 213.28 444.89 205.51 453.22 204.95C461.55 204.39 483.769 209.4 483.769 209.4C483.769 209.4 485.44 203.84 480.44 192.73C476.86 185.062 472.778 177.64 468.22 170.51L472.66 169.96C472.66 169.96 461.55 155.52 433.22 147.74C404.89 139.96 384.89 160 375.45 174.4C366.01 188.8 369.9 211.62 369.9 211.62C369.9 211.62 407.67 202.73 418.78 214.4C418.78 214.4 422.67 217.17 426 217.17C429.33 217.17 431.549 213.28 431.549 213.28Z" fill="white"/>
<path d="M396.56 193.29L417.67 205.51L399.34 203.84L419.89 208.84L422.67 217.17L416.56 408.81H429.89L426 217.17L434.89 202.18L447.11 197.73L436 196.62L439.89 189.4L425.44 212.73L428.22 193.29L432.67 184.4L427.11 186.07L426 174.4L422.67 207.73L414.89 189.4L416 201.62L396.56 193.29Z" fill="#263238"/>
<path d="M120.999 268.83C120.999 268.83 130.539 263.26 136.509 262.83C142.479 262.4 158.419 266 158.419 266C158.419 266 159.609 262 156.029 254.07C153.466 248.583 150.543 243.271 147.279 238.17L150.469 237.77C150.469 237.77 142.469 227.43 122.229 221.86C101.989 216.29 87.6292 230.65 80.8692 241C74.1092 251.35 76.8692 267.65 76.8692 267.65C76.8692 267.65 103.919 261.28 111.869 269.65C111.869 269.65 114.649 271.65 117.039 271.65C119.429 271.65 120.999 268.83 120.999 268.83Z" fill="#37474F"/>
<path opacity="0.4" d="M120.999 268.83C120.999 268.83 130.539 263.26 136.509 262.83C142.479 262.4 158.419 266 158.419 266C158.419 266 159.609 262 156.029 254.07C153.466 248.583 150.543 243.271 147.279 238.17L150.469 237.77C150.469 237.77 142.469 227.43 122.229 221.86C101.989 216.29 87.6292 230.65 80.8692 241C74.1092 251.35 76.8692 267.65 76.8692 267.65C76.8692 267.65 103.919 261.28 111.869 269.65C111.869 269.65 114.649 271.65 117.039 271.65C119.429 271.65 120.999 268.83 120.999 268.83Z" fill="white"/>
<path d="M95.9795 254.51L111.089 263.26L97.9695 262.07L112.689 265.65L114.669 271.61L110.299 408.81H119.839L117.059 271.61L123.419 260.87L132.169 257.69L124.219 256.9L126.999 251.73L116.659 268.43L118.649 254.51L121.829 248.15L117.859 249.34L117.059 240.99L114.669 264.85L109.109 251.73L109.899 260.48L95.9795 254.51Z" fill="#263238"/>
<path d="M173.14 78.53L179.85 79.53C179.85 79.53 172.18 71.86 176.98 74.26C180.29 75.9712 183.489 77.8883 186.56 80C186.56 80 179.85 70.42 185.12 70.42C190.39 70.42 198.07 84.32 198.07 84.32C198.07 84.32 195.67 67.06 201.42 70.89C207.17 74.72 206.7 93.89 206.7 93.89C206.7 93.89 217.24 84.31 222.99 84.31C228.74 84.31 217.72 97.73 217.72 97.73C217.72 97.73 235.46 98.21 234.98 100.6C234.5 102.99 225.87 104.44 225.87 104.44C225.87 104.44 244.56 106.84 242.17 109.23C240.925 110.6 239.213 111.456 237.37 111.63C237.37 111.63 268.05 133.2 275.24 173.47C275.24 173.47 274.29 177.3 272.85 173.47C271.648 170.685 270.029 168.098 268.05 165.8C268.05 165.8 271.89 188.33 268.05 201.27C264.21 214.21 264.22 212.27 257.51 207.98C250.8 203.69 238.33 204.15 238.33 204.15C238.33 204.15 247.44 207.5 243.61 208.46C239.78 209.42 220.12 207.02 201.42 212.78C189.902 216.433 179.284 222.475 170.26 230.51C170.26 230.51 166.43 222.36 132.87 211.82C99.3096 201.28 82.0596 221.4 82.0596 221.4L90.2096 208C90.2096 208 80.1396 215.67 80.6196 211.84C81.0996 208.01 91.6196 196.5 91.6196 196.5C91.6196 196.5 70.0796 213.71 67.1996 206C64.3196 198.29 61.9296 187.31 68.1996 161.42C74.4696 135.53 92.1996 118.76 92.1996 118.76C92.1996 118.76 83.5696 125.47 83.0896 123.07C82.6096 120.67 87.3296 107.78 99.7996 102C112.27 96.22 124.72 92 124.72 92C124.72 92 111.78 94.39 115.62 91C119.46 87.61 143.42 82.37 143.42 82.37C143.42 82.37 132.87 80 138.15 79C143.43 78 157.8 78 157.8 78C157.8 78 154.92 73.21 159.24 73.21C163.56 73.21 170.24 78.48 170.24 78.48L173.14 78.53Z" fill="#37474F"/>
<path opacity="0.4" d="M173.14 78.53L179.85 79.53C179.85 79.53 172.18 71.86 176.98 74.26C180.29 75.9712 183.489 77.8883 186.56 80C186.56 80 179.85 70.42 185.12 70.42C190.39 70.42 198.07 84.32 198.07 84.32C198.07 84.32 195.67 67.06 201.42 70.89C207.17 74.72 206.7 93.89 206.7 93.89C206.7 93.89 217.24 84.31 222.99 84.31C228.74 84.31 217.72 97.73 217.72 97.73C217.72 97.73 235.46 98.21 234.98 100.6C234.5 102.99 225.87 104.44 225.87 104.44C225.87 104.44 244.56 106.84 242.17 109.23C240.925 110.6 239.213 111.456 237.37 111.63C237.37 111.63 268.05 133.2 275.24 173.47C275.24 173.47 274.29 177.3 272.85 173.47C271.648 170.685 270.029 168.098 268.05 165.8C268.05 165.8 271.89 188.33 268.05 201.27C264.21 214.21 264.22 212.27 257.51 207.98C250.8 203.69 238.33 204.15 238.33 204.15C238.33 204.15 247.44 207.5 243.61 208.46C239.78 209.42 220.12 207.02 201.42 212.78C189.902 216.433 179.284 222.475 170.26 230.51C170.26 230.51 166.43 222.36 132.87 211.82C99.3096 201.28 82.0596 221.4 82.0596 221.4L90.2096 208C90.2096 208 80.1396 215.67 80.6196 211.84C81.0996 208.01 91.6196 196.5 91.6196 196.5C91.6196 196.5 70.0796 213.71 67.1996 206C64.3196 198.29 61.9296 187.31 68.1996 161.42C74.4696 135.53 92.1996 118.76 92.1996 118.76C92.1996 118.76 83.5696 125.47 83.0896 123.07C82.6096 120.67 87.3296 107.78 99.7996 102C112.27 96.22 124.72 92 124.72 92C124.72 92 111.78 94.39 115.62 91C119.46 87.61 143.42 82.37 143.42 82.37C143.42 82.37 132.87 80 138.15 79C143.43 78 157.8 78 157.8 78C157.8 78 154.92 73.21 159.24 73.21C163.56 73.21 170.24 78.48 170.24 78.48L173.14 78.53Z" fill="white"/>
<path d="M183.209 244.87L185.119 223.78L239.289 188.78L217.289 198.84L218.729 187.84L210.999 203.17L185.109 217.07C185.109 217.07 186.449 212.45 188.369 205.74C190.289 199.03 206.689 180.16 206.689 180.16L186.559 197.9L188.019 184.9L181.199 206.1L174.769 207.25L174.099 183.51L170.259 173.45L169.309 183.51V220.9L146.059 192.11L149.649 173.45L140.319 188.88L118.999 175.37C118.999 175.37 148.339 203.91 156.489 215.37L126.369 201.02L118.519 186.34L122.359 198.8L103.659 201.68L123.499 202.82L159.769 223.45C162.069 231.24 162.499 239.09 163.099 245.78C164.099 256.33 155.649 392.47 155.649 392.47C155.649 392.47 154.209 400.14 143.649 408.76H200.649C200.649 408.76 196.329 400.61 191.539 389.59C186.749 378.57 183.209 244.87 183.209 244.87Z" fill="#263238"/>
<path d="M139.42 408.17C139.419 405.125 138.803 402.112 137.61 399.31C134.98 392.41 130.38 406.2 130.38 406.2C130.38 406.2 130.38 404.56 125.46 399.31C120.54 394.06 116.26 403.25 116.26 403.25C116.26 403.25 118.56 381.25 112.98 382.89C107.4 384.53 108.05 403.25 108.05 403.25C108.05 403.25 104.11 389.45 98.8601 389.45C93.6101 389.45 92.2901 399.31 92.2901 399.31C92.2901 399.31 91.0001 381.9 85.7201 381.57C80.4401 381.24 74.5601 396 74.5601 396C74.5601 396 76.2001 376.3 70.9501 375.31C65.7001 374.32 63.7201 382.54 63.7201 382.54C63.7201 382.54 59.1201 355.28 50.2601 358.54C41.4001 361.8 49.0001 392.08 49.0001 392.08C49.0001 392.08 40.1301 371.08 32.9001 375.99C26.3401 380.47 34.6901 403.94 36.2701 408.17H139.42Z" fill="#37474F"/>
<path d="M33.5097 407.83C33.5097 407.83 29.5697 395.35 31.5097 393.38C33.4497 391.41 42.0497 400 42.0497 400C42.0497 400 35.8097 379 45.6597 376.35C55.5097 373.7 57.1497 396.71 57.1497 396.71C57.1497 396.71 64.3797 386.21 66.0197 390.15C67.0105 392.549 67.5658 395.106 67.6597 397.7C67.6597 397.7 71.2697 369.13 79.4797 370.44C87.6897 371.75 80.1397 400 80.1397 400C80.1397 400 84.7397 390.15 89.9897 391.13C95.2397 392.11 97.2197 398.36 97.2197 398.36C97.2197 398.36 99.5097 392.77 101.16 392.77C102.81 392.77 104.77 402.62 104.77 402.62C104.77 402.62 106.77 387.52 110.35 388.18C113.93 388.84 121.52 401.64 121.52 401.64C121.52 401.64 120.2 394.42 124.14 394.09C128.08 393.76 130.38 405.25 130.38 405.25C130.38 405.25 135.64 394.42 138.92 396.39C142.2 398.36 140.56 408.86 140.56 408.86" stroke="#263238" stroke-linecap="round" stroke-linejoin="round"/>
<path d="M51.57 407.83L48.29 393.05" stroke="#263238" stroke-linecap="round" stroke-linejoin="round"/>
<path d="M71.6006 407.17L73.2406 397.98" stroke="#263238" stroke-linecap="round" stroke-linejoin="round"/>
<path d="M113.96 407.83L111.01 399.62" stroke="#263238" stroke-linecap="round" stroke-linejoin="round"/>
<path d="M87.6904 407.5L91.3104 400.93" stroke="#263238" stroke-linecap="round" stroke-linejoin="round"/>
<path d="M50.5898 401.59L53.2098 396.34" stroke="#263238" stroke-linecap="round" stroke-linejoin="round"/>
<path d="M71.5998 404.22L69.2998 399.62" stroke="#263238" stroke-linecap="round" stroke-linejoin="round"/>
<path d="M89.3404 403.89L87.6904 400.93" stroke="#263238" stroke-linecap="round" stroke-linejoin="round"/>
<path d="M112.65 403.56L113.63 400.28" stroke="#263238" stroke-linecap="round" stroke-linejoin="round"/>
<path d="M342.85 408.17C342.849 405.125 342.233 402.112 341.04 399.31C338.41 392.41 333.81 406.2 333.81 406.2C333.81 406.2 333.81 404.56 328.89 399.31C323.97 394.06 319.69 403.25 319.69 403.25C319.69 403.25 321.99 381.25 316.41 382.89C310.83 384.53 311.48 403.25 311.48 403.25C311.48 403.25 307.54 389.45 302.29 389.45C297.04 389.45 295.72 399.31 295.72 399.31C295.72 399.31 294.41 381.9 289.16 381.57C283.91 381.24 278 396 278 396C278 396 279.64 376.3 274.39 375.31C269.14 374.32 267.16 382.54 267.16 382.54C267.16 382.54 262.57 355.28 253.7 358.54C244.83 361.8 252.39 392.03 252.39 392.03C252.39 392.03 243.52 371.03 236.3 375.94C229.73 380.42 238.09 403.89 239.66 408.12L342.85 408.17Z" fill="#37474F"/>
<path d="M236.94 407.83C236.94 407.83 233 395.35 234.94 393.38C236.88 391.41 245.48 400 245.48 400C245.48 400 239.24 379 249.09 376.35C258.94 373.7 260.59 396.71 260.59 396.71C260.59 396.71 267.81 386.21 269.45 390.15C270.441 392.549 270.996 395.106 271.09 397.7C271.09 397.7 274.71 369.13 282.92 370.44C291.13 371.75 283.57 400 283.57 400C283.57 400 288.17 390.15 293.42 391.13C298.67 392.11 300.65 398.36 300.65 398.36C300.65 398.36 302.95 392.77 304.59 392.77C306.23 392.77 308.2 402.62 308.2 402.62C308.2 402.62 310.2 387.52 313.78 388.18C317.36 388.84 325 401.59 325 401.59C325 401.59 323.68 394.37 327.62 394.04C331.56 393.71 333.86 405.2 333.86 405.2C333.86 405.2 339.12 394.37 342.4 396.34C345.68 398.31 344 408.81 344 408.81" stroke="#263238" stroke-linecap="round" stroke-linejoin="round"/>
<path d="M255 407.83L251.72 393.05" stroke="#263238" stroke-linecap="round" stroke-linejoin="round"/>
<path d="M275.03 407.17L276.68 397.98" stroke="#263238" stroke-linecap="round" stroke-linejoin="round"/>
<path d="M317.4 407.83L314.44 399.62" stroke="#263238" stroke-linecap="round" stroke-linejoin="round"/>
<path d="M291.13 407.5L294.74 400.93" stroke="#263238" stroke-linecap="round" stroke-linejoin="round"/>
<path d="M254.021 401.59L256.65 396.34" stroke="#263238" stroke-linecap="round" stroke-linejoin="round"/>
<path d="M275.03 404.22L272.74 399.62" stroke="#263238" stroke-linecap="round" stroke-linejoin="round"/>
<path d="M292.77 403.89L291.13 400.93" stroke="#263238" stroke-linecap="round" stroke-linejoin="round"/>
<path d="M316.08 403.56L317.07 400.28" stroke="#263238" stroke-linecap="round" stroke-linejoin="round"/>
<path d="M240.18 407.86C240.183 404.815 239.567 401.8 238.37 399C235.75 392.1 231.15 405.89 231.15 405.89C231.15 405.89 231.15 404.25 226.22 399C221.29 393.75 217.03 402.94 217.03 402.94C217.03 402.94 219.33 380.94 213.75 382.58C208.17 384.22 208.82 402.94 208.82 402.94C208.82 402.94 204.88 389.15 199.63 389.15C194.38 389.15 193.06 399 193.06 399C193.06 399 191.74 381.59 186.49 381.27C181.24 380.95 175.33 395.71 175.33 395.71C175.33 395.71 177 376 171.71 375C166.42 374 164.49 382.22 164.49 382.22C164.49 382.22 159.89 354.97 151.03 358.22C142.17 361.47 149.71 391.71 149.71 391.71C149.71 391.71 140.85 370.71 133.62 375.62C127.06 380.1 135.41 403.57 136.99 407.8L240.18 407.86Z" fill="#37474F"/>
<path d="M134.28 407.52C134.28 407.52 130.34 395.04 132.28 393.07C134.22 391.1 142.79 399.64 142.79 399.64C142.79 399.64 136.55 378.64 146.4 376C156.25 373.36 157.89 396.36 157.89 396.36C157.89 396.36 165.12 385.85 166.76 389.79C167.751 392.189 168.306 394.746 168.4 397.34C168.4 397.34 172.01 368.77 180.22 370.09C188.43 371.41 180.88 399.64 180.88 399.64C180.88 399.64 185.48 389.79 190.73 390.77C195.98 391.75 198 398 198 398C198 398 200.3 392.42 201.94 392.42C203.58 392.42 205.56 402.27 205.56 402.27C205.56 402.27 207.56 387.16 211.14 387.82C214.72 388.48 222.3 401.28 222.3 401.28C222.3 401.28 220.99 394.06 224.93 393.73C228.87 393.4 231.17 404.89 231.17 404.89C231.17 404.89 236.42 394.06 239.71 396.03C243 398 241.35 408.51 241.35 408.51" stroke="#263238" stroke-linecap="round" stroke-linejoin="round"/>
<path d="M152.341 407.52L149.061 392.74" stroke="#263238" stroke-linecap="round" stroke-linejoin="round"/>
<path d="M172.37 406.86L174.01 397.67" stroke="#263238" stroke-linecap="round" stroke-linejoin="round"/>
<path d="M214.73 407.52L211.78 399.31" stroke="#263238" stroke-linecap="round" stroke-linejoin="round"/>
<path d="M188.46 407.19L192.07 400.62" stroke="#263238" stroke-linecap="round" stroke-linejoin="round"/>
<path d="M151.351 401.28L153.981 396.03" stroke="#263238" stroke-linecap="round" stroke-linejoin="round"/>
<path d="M172.37 403.91L170.07 399.31" stroke="#263238" stroke-linecap="round" stroke-linejoin="round"/>
<path d="M190.1 403.58L188.46 400.62" stroke="#263238" stroke-linecap="round" stroke-linejoin="round"/>
<path d="M213.42 403.25L214.4 399.97" stroke="#263238" stroke-linecap="round" stroke-linejoin="round"/>
<path d="M16.8701 408.81H487.63" stroke="#263238" stroke-linecap="round" stroke-linejoin="round"/>
<path d="M385.33 433C434.483 433 474.33 428.971 474.33 424C474.33 419.029 434.483 415 385.33 415C336.177 415 296.33 419.029 296.33 424C296.33 428.971 336.177 433 385.33 433Z" fill="#263238"/>
<path d="M443.88 330.19C443.88 330.19 454.02 333.34 455.42 349.76C456.82 366.18 441.79 373.88 425 376.33C408.21 378.78 374.67 367.24 353 362.33C331.33 357.42 299.53 355.69 281 359.53C262.47 363.37 245.7 374.91 245.7 377.7C245.7 380.49 256.19 370.7 276.11 367.22C296.03 363.74 342.87 368.27 358.94 370.71C375.01 373.15 410 391 427.11 391C444.22 391 454.72 388.9 468 376.67C481.28 364.44 484.43 350.8 484.08 341.72C483.85 335.72 483.61 332.31 483.48 330.72C483.416 329.962 483.083 329.253 482.54 328.72L480.23 326.41L479.95 320.22C479.93 319.759 479.794 319.31 479.554 318.915C479.315 318.52 478.98 318.191 478.58 317.96L475.69 316.27L474.78 313.11C474.63 312.579 474.35 312.093 473.963 311.698C473.577 311.303 473.098 311.012 472.57 310.85L469.75 309.98L468.3 303.64C468.208 303.227 468.013 302.843 467.733 302.525C467.454 302.207 467.098 301.965 466.7 301.82L464.15 300.89L462.33 296.73C462.141 296.299 461.841 295.925 461.459 295.649C461.078 295.373 460.629 295.204 460.16 295.16L457.86 294.95L457.1 292.85C456.905 292.327 456.572 291.865 456.138 291.513C455.704 291.162 455.183 290.933 454.63 290.85L451.92 290.43C451.92 290.43 450.52 286.58 449.48 283.79C448.44 281 445.63 283.09 445.63 283.09C445.63 283.09 437.24 283.09 431.63 285.19" fill="#37474F"/>
<path d="M443.88 330.19C443.88 330.19 454.02 333.34 455.42 349.76C456.82 366.18 441.79 373.88 425 376.33C408.21 378.78 374.67 367.24 353 362.33C331.33 357.42 299.53 355.69 281 359.53C262.47 363.37 245.7 374.91 245.7 377.7C245.7 380.49 256.19 370.7 276.11 367.22C296.03 363.74 342.87 368.27 358.94 370.71C375.01 373.15 410 391 427.11 391C444.22 391 454.72 388.9 468 376.67C481.28 364.44 484.43 350.8 484.08 341.72C483.85 335.72 483.61 332.31 483.48 330.72C483.416 329.962 483.083 329.253 482.54 328.72L480.23 326.41L479.95 320.22C479.93 319.759 479.794 319.31 479.554 318.915C479.315 318.52 478.98 318.191 478.58 317.96L475.69 316.27L474.78 313.11C474.63 312.579 474.35 312.093 473.963 311.698C473.577 311.303 473.098 311.012 472.57 310.85L469.75 309.98L468.3 303.64C468.208 303.227 468.013 302.843 467.733 302.525C467.454 302.207 467.098 301.965 466.7 301.82L464.15 300.89L462.33 296.73C462.141 296.299 461.841 295.925 461.459 295.649C461.078 295.373 460.629 295.204 460.16 295.16L457.86 294.95L457.1 292.85C456.905 292.327 456.572 291.865 456.138 291.513C455.704 291.162 455.183 290.933 454.63 290.85L451.92 290.43C451.92 290.43 450.52 286.58 449.48 283.79C448.44 281 445.63 283.09 445.63 283.09C445.63 283.09 437.24 283.09 431.63 285.19" stroke="#263238" stroke-linecap="round" stroke-linejoin="round"/>
<path d="M402 358.85C402 358.85 401.65 364.79 404.45 365.85C407.25 366.91 411.09 366.9 411.09 371.44C411.09 375.98 405.84 392.76 404.09 398C402.34 403.24 405.14 411.29 398.84 415.83C392.54 420.37 383.12 421.07 379.97 417.93C376.82 414.79 384.17 410.59 384.86 406.04C385.55 401.49 391.16 382.28 391.16 379.83C391.16 377.38 384.86 376.34 377.16 368.3C369.46 360.26 369.16 355.71 369.16 355.71L402 358.85Z" fill="#37474F"/>
<mask id="mask0_147_36" style="mask-type:luminance" maskUnits="userSpaceOnUse" x="369" y="355" width="43" height="65">
<path d="M402 358.85C402 358.85 401.65 364.79 404.45 365.85C407.25 366.91 411.09 366.9 411.09 371.44C411.09 375.98 405.84 392.76 404.09 398C402.34 403.24 405.14 411.29 398.84 415.83C392.54 420.37 383.12 421.07 379.97 417.93C376.82 414.79 384.17 410.59 384.86 406.04C385.55 401.49 391.16 382.28 391.16 379.83C391.16 377.38 384.86 376.34 377.16 368.3C369.46 360.26 369.16 355.71 369.16 355.71L402 358.85Z" fill="white"/>
</mask>
<g mask="url(#mask0_147_36)">
<path opacity="0.5" d="M402 358.85C402 358.85 401.65 364.79 404.45 365.85C407.25 366.91 411.09 366.9 411.09 371.44C411.09 375.98 405.84 392.76 404.09 398C402.34 403.24 405.14 411.29 398.84 415.83C392.54 420.37 383.12 421.07 379.97 417.93C376.82 414.79 384.17 410.59 384.86 406.04C385.55 401.49 391.16 382.28 391.16 379.83C391.16 377.38 384.86 376.34 377.16 368.3C369.46 360.26 369.16 355.71 369.16 355.71L402 358.85Z" fill="black"/>
</g>
<path d="M402 358.85C402 358.85 401.65 364.79 404.45 365.85C407.25 366.91 411.09 366.9 411.09 371.44C411.09 375.98 405.84 392.76 404.09 398C402.34 403.24 405.14 411.29 398.84 415.83C392.54 420.37 383.12 421.07 379.97 417.93C376.82 414.79 384.17 410.59 384.86 406.04C385.55 401.49 391.16 382.28 391.16 379.83C391.16 377.38 384.86 376.34 377.16 368.3C369.46 360.26 369.16 355.71 369.16 355.71L402 358.85Z" stroke="#263238" stroke-linecap="round" stroke-linejoin="round"/>
<path d="M314.41 316.18C314.41 316.18 312.54 334.18 317.82 344.42C323.1 354.66 333.03 365.84 333.65 376.08C334.27 386.32 330.85 404.64 329.3 409.29C327.75 413.94 322.16 418.29 323.1 421.08C324.04 423.87 335.51 424.19 341.41 423.88C347.31 423.57 351.65 421.08 352.27 414.57C352.89 408.06 354.44 381.67 355.37 375.15C356.3 368.63 357.55 359.32 353.82 355.29C350.09 351.26 330.82 335.73 328.68 331.08C326.54 326.43 327.44 328.91 325.27 324.56C323.1 320.21 318.13 314 316.89 314C315.65 314 314.41 316.18 314.41 316.18Z" fill="#37474F" stroke="#263238" stroke-linecap="round" stroke-linejoin="round"/>
<path d="M446.46 298.93C449.61 308.39 449.26 330.44 449.26 330.44C449.26 330.44 449.96 337.44 447.16 349.35C444.36 361.26 445.06 357.75 446.11 361.95C447.16 366.15 447.16 392.76 447.16 401.51C447.16 410.26 445.41 420.42 440.16 421.82C434.91 423.22 426.16 424.62 422.65 423.22C419.14 421.82 419.15 418.67 420.55 415.87C421.95 413.07 424.4 413.07 427.2 405.72C430 398.37 429 383.31 429 383.31C427.037 383.075 425.146 382.423 423.456 381.397C421.765 380.37 420.314 378.994 419.2 377.36C415.3 371.75 416 356 416 356L405.5 360.2C384.5 367.9 364.18 363.7 364.18 363.7C354.882 363.05 345.878 360.168 337.93 355.3C325 347.25 319.37 328 319.37 328L313.77 318.2C313.77 318.2 305.02 297.89 305.77 279.69C306.52 261.49 308.92 226.47 305.77 204.06C302.62 181.65 283.71 155.4 283.71 155.4C283.71 155.4 282.31 157.5 277.41 159.25C272.51 161 262.7 159.6 257.41 157.15C252.874 155.175 247.996 154.105 243.05 154C242.738 154.063 242.415 154.034 242.119 153.917C241.823 153.8 241.567 153.6 241.382 153.341C241.197 153.083 241.091 152.776 241.077 152.458C241.062 152.14 241.14 151.825 241.3 151.55C241.3 151.55 235.69 150.85 236.04 146.99C236.39 143.13 240.25 135.09 247.6 133.69C251.871 132.911 256 131.496 259.85 129.49C259.85 129.49 271.05 123.89 281.21 125.99C291.37 128.09 308.52 142.09 319.37 164.85C330.22 187.61 337.58 207.91 340.73 226.47C343.88 245.03 348.43 267.78 348.43 267.78L353.33 260.78C353.519 260.506 353.806 260.315 354.131 260.246C354.457 260.177 354.797 260.236 355.08 260.41L358.58 262.57L360.97 254.57C361.172 253.89 361.634 253.317 362.255 252.974C362.876 252.632 363.607 252.548 364.29 252.74L368.04 253.74L373.31 244.3C373.486 243.987 373.724 243.713 374.01 243.496C374.297 243.278 374.625 243.123 374.974 243.038C375.323 242.954 375.686 242.942 376.04 243.005C376.394 243.067 376.731 243.201 377.03 243.4L381.03 246.04L386.55 238.77C386.692 238.585 386.872 238.432 387.078 238.323C387.284 238.213 387.511 238.148 387.744 238.133C387.977 238.118 388.21 238.153 388.429 238.235C388.647 238.317 388.845 238.445 389.01 238.61L393.63 243.23L401.05 237.4C401.335 237.177 401.666 237.021 402.02 236.945C402.374 236.868 402.74 236.873 403.091 236.959C403.443 237.044 403.77 237.209 404.049 237.439C404.328 237.67 404.55 237.961 404.7 238.29L407.29 243.94L414.35 241.22C414.618 241.117 414.904 241.068 415.19 241.076C415.477 241.083 415.76 241.147 416.022 241.264C416.284 241.381 416.52 241.549 416.717 241.758C416.914 241.966 417.068 242.212 417.17 242.48L419.17 247.79L422.99 247.28C423.403 247.218 423.825 247.297 424.188 247.503C424.55 247.71 424.833 248.033 424.99 248.42L426.89 253.04L429.98 253.48C430.501 253.546 430.983 253.789 431.347 254.167C431.711 254.546 431.934 255.037 431.98 255.56L432.53 262.14H434.12C434.557 262.142 434.979 262.295 435.315 262.574C435.651 262.854 435.879 263.241 435.96 263.67L436.73 267.74L439.15 267.96C439.569 267.997 439.966 268.161 440.288 268.432C440.61 268.702 440.841 269.064 440.95 269.47L441.63 271.94L442.06 272.02C442.547 272.099 442.996 272.33 443.343 272.681C443.689 273.031 443.916 273.483 443.99 273.97L444.78 278.97C444.78 278.97 446.88 288.77 446.53 292.97" fill="#37474F"/>
<mask id="mask1_147_36" style="mask-type:luminance" maskUnits="userSpaceOnUse" x="236" y="125" width="214" height="299">
<path d="M446.46 298.93C449.61 308.39 449.26 330.44 449.26 330.44C449.26 330.44 449.96 337.44 447.16 349.35C444.36 361.26 445.06 357.75 446.11 361.95C447.16 366.15 447.16 392.76 447.16 401.51C447.16 410.26 445.41 420.42 440.16 421.82C434.91 423.22 426.16 424.62 422.65 423.22C419.14 421.82 419.15 418.67 420.55 415.87C421.95 413.07 424.4 413.07 427.2 405.72C430 398.37 429 383.31 429 383.31C427.037 383.075 425.146 382.423 423.456 381.397C421.765 380.37 420.314 378.994 419.2 377.36C415.3 371.75 416 356 416 356L405.5 360.2C384.5 367.9 364.18 363.7 364.18 363.7C354.882 363.05 345.878 360.168 337.93 355.3C325 347.25 319.37 328 319.37 328L313.77 318.2C313.77 318.2 305.02 297.89 305.77 279.69C306.52 261.49 308.92 226.47 305.77 204.06C302.62 181.65 283.71 155.4 283.71 155.4C283.71 155.4 282.31 157.5 277.41 159.25C272.51 161 262.7 159.6 257.41 157.15C252.874 155.175 247.996 154.105 243.05 154C242.738 154.063 242.415 154.034 242.119 153.917C241.823 153.8 241.567 153.6 241.382 153.341C241.197 153.083 241.091 152.776 241.077 152.458C241.062 152.14 241.14 151.825 241.3 151.55C241.3 151.55 235.69 150.85 236.04 146.99C236.39 143.13 240.25 135.09 247.6 133.69C251.871 132.911 256 131.496 259.85 129.49C259.85 129.49 271.05 123.89 281.21 125.99C291.37 128.09 308.52 142.09 319.37 164.85C330.22 187.61 337.58 207.91 340.73 226.47C343.88 245.03 348.43 267.78 348.43 267.78L353.33 260.78C353.519 260.506 353.806 260.315 354.131 260.246C354.457 260.177 354.797 260.236 355.08 260.41L358.58 262.57L360.97 254.57C361.172 253.89 361.634 253.317 362.255 252.974C362.876 252.632 363.607 252.548 364.29 252.74L368.04 253.74L373.31 244.3C373.486 243.987 373.724 243.713 374.01 243.496C374.297 243.278 374.625 243.123 374.974 243.038C375.323 242.954 375.686 242.942 376.04 243.005C376.394 243.067 376.731 243.201 377.03 243.4L381.03 246.04L386.55 238.77C386.692 238.585 386.872 238.432 387.078 238.323C387.284 238.213 387.511 238.148 387.744 238.133C387.977 238.118 388.21 238.153 388.429 238.235C388.647 238.317 388.845 238.445 389.01 238.61L393.63 243.23L401.05 237.4C401.335 237.177 401.666 237.021 402.02 236.945C402.374 236.868 402.74 236.873 403.091 236.959C403.443 237.044 403.77 237.209 404.049 237.439C404.328 237.67 404.55 237.961 404.7 238.29L407.29 243.94L414.35 241.22C414.618 241.117 414.904 241.068 415.19 241.076C415.477 241.083 415.76 241.147 416.022 241.264C416.284 241.381 416.52 241.549 416.717 241.758C416.914 241.966 417.068 242.212 417.17 242.48L419.17 247.79L422.99 247.28C423.403 247.218 423.825 247.297 424.188 247.503C424.55 247.71 424.833 248.033 424.99 248.42L426.89 253.04L429.98 253.48C430.501 253.546 430.983 253.789 431.347 254.167C431.711 254.546 431.934 255.037 431.98 255.56L432.53 262.14H434.12C434.557 262.142 434.979 262.295 435.315 262.574C435.651 262.854 435.879 263.241 435.96 263.67L436.73 267.74L439.15 267.96C439.569 267.997 439.966 268.161 440.288 268.432C440.61 268.702 440.841 269.064 440.95 269.47L441.63 271.94L442.06 272.02C442.547 272.099 442.996 272.33 443.343 272.681C443.689 273.031 443.916 273.483 443.99 273.97L444.78 278.97C444.78 278.97 446.88 288.77 446.53 292.97" fill="white"/>
</mask>
<g mask="url(#mask1_147_36)">
<path d="M418.44 344.92C400.93 351.86 344.1 345.25 335.84 322.78C327.58 300.31 329.56 268.27 329.56 268.27C329.56 268.27 332.87 266.27 323.62 217.72C314.37 169.17 287 152 287 152L282.37 156.63V156.71C282.875 156.345 283.326 155.911 283.71 155.42C283.71 155.42 302.61 181.68 305.77 204.08C308.93 226.48 306.47 261.5 305.77 279.71C305.07 297.92 313.77 318.22 313.77 318.22L319.37 328.02C319.37 328.02 324.97 347.28 337.93 355.33C345.878 360.198 354.882 363.08 364.18 363.73C364.18 363.73 384.49 367.93 405.5 360.23L416 356C441.64 335.7 439.91 317.5 439.91 317.5C439.91 317.5 436 338 418.44 344.92Z" fill="white"/>
</g>
<path d="M446.46 298.93C449.61 308.39 449.26 330.44 449.26 330.44C449.26 330.44 449.96 337.44 447.16 349.35C444.36 361.26 445.06 357.75 446.11 361.95C447.16 366.15 447.16 392.76 447.16 401.51C447.16 410.26 445.41 420.42 440.16 421.82C434.91 423.22 426.16 424.62 422.65 423.22C419.14 421.82 419.15 418.67 420.55 415.87C421.95 413.07 424.4 413.07 427.2 405.72C430 398.37 429 383.31 429 383.31C427.037 383.075 425.146 382.423 423.456 381.397C421.765 380.37 420.314 378.994 419.2 377.36C415.3 371.75 416 356 416 356L405.5 360.2C384.5 367.9 364.18 363.7 364.18 363.7C354.882 363.05 345.878 360.168 337.93 355.3C325 347.25 319.37 328 319.37 328L313.77 318.2C313.77 318.2 305.02 297.89 305.77 279.69C306.52 261.49 308.92 226.47 305.77 204.06C302.62 181.65 283.71 155.4 283.71 155.4C283.71 155.4 282.31 157.5 277.41 159.25C272.51 161 262.7 159.6 257.41 157.15C252.874 155.175 247.996 154.105 243.05 154C242.738 154.063 242.415 154.034 242.119 153.917C241.823 153.8 241.567 153.6 241.382 153.341C241.197 153.083 241.091 152.776 241.077 152.458C241.062 152.14 241.14 151.825 241.3 151.55C241.3 151.55 235.69 150.85 236.04 146.99C236.39 143.13 240.25 135.09 247.6 133.69C251.871 132.911 256 131.496 259.85 129.49C259.85 129.49 271.05 123.89 281.21 125.99C291.37 128.09 308.52 142.09 319.37 164.85C330.22 187.61 337.58 207.91 340.73 226.47C343.88 245.03 348.43 267.78 348.43 267.78L353.33 260.78C353.519 260.506 353.806 260.315 354.131 260.246C354.457 260.177 354.797 260.236 355.08 260.41L358.58 262.57L360.97 254.57C361.172 253.89 361.634 253.317 362.255 252.974C362.876 252.632 363.607 252.548 364.29 252.74L368.04 253.74L373.31 244.3C373.486 243.987 373.724 243.713 374.01 243.496C374.297 243.278 374.625 243.123 374.974 243.038C375.323 242.954 375.686 242.942 376.04 243.005C376.394 243.067 376.731 243.201 377.03 243.4L381.03 246.04L386.55 238.77C386.692 238.585 386.872 238.432 387.078 238.323C387.284 238.213 387.511 238.148 387.744 238.133C387.977 238.118 388.21 238.153 388.429 238.235C388.647 238.317 388.845 238.445 389.01 238.61L393.63 243.23L401.05 237.4C401.335 237.177 401.666 237.021 402.02 236.945C402.374 236.868 402.74 236.873 403.091 236.959C403.443 237.044 403.77 237.209 404.049 237.439C404.328 237.67 404.55 237.961 404.7 238.29L407.29 243.94L414.35 241.22C414.618 241.117 414.904 241.068 415.19 241.076C415.477 241.083 415.76 241.147 416.022 241.264C416.284 241.381 416.52 241.549 416.717 241.758C416.914 241.966 417.068 242.212 417.17 242.48L419.17 247.79L422.99 247.28C423.403 247.218 423.825 247.297 424.188 247.503C424.55 247.71 424.833 248.033 424.99 248.42L426.89 253.04L429.98 253.48C430.501 253.546 430.983 253.789 431.347 254.167C431.711 254.546 431.934 255.037 431.98 255.56L432.53 262.14H434.12C434.557 262.142 434.979 262.295 435.315 262.574C435.651 262.854 435.879 263.241 435.96 263.67L436.73 267.74L439.15 267.96C439.569 267.997 439.966 268.161 440.288 268.432C440.61 268.702 440.841 269.064 440.95 269.47L441.63 271.94L442.06 272.02C442.547 272.099 442.996 272.33 443.343 272.681C443.689 273.031 443.916 273.483 443.99 273.97L444.78 278.97C444.78 278.97 446.88 288.77 446.53 292.97" stroke="#263238" stroke-linecap="round" stroke-linejoin="round"/>
<path d="M422.58 418.07C421.96 417.984 421.329 418.094 420.775 418.385C420.221 418.675 419.772 419.132 419.49 419.69C418.42 422.14 419.71 423.69 421.49 423.62C423.27 423.55 424.73 420.12 423.63 418.73C423.369 418.393 422.997 418.159 422.58 418.07Z" fill="#8C8C8C" stroke="#263238" stroke-linecap="round" stroke-linejoin="round"/>
<path d="M427.24 418.9C426.62 418.814 425.989 418.924 425.435 419.215C424.881 419.505 424.432 419.961 424.15 420.52C423.08 422.97 424.37 424.52 426.15 424.45C427.93 424.38 429.39 420.95 428.3 419.56C428.04 419.217 427.662 418.982 427.24 418.9Z" fill="#8C8C8C" stroke="#263238" stroke-linecap="round" stroke-linejoin="round"/>
<path d="M432 419.44C431.398 419.36 430.786 419.469 430.248 419.752C429.711 420.035 429.274 420.478 429 421.02C428 423.41 429.21 424.89 430.93 424.86C432.65 424.83 434.09 421.44 433.02 420.08C432.767 419.752 432.405 419.525 432 419.44Z" fill="#8C8C8C" stroke="#263238" stroke-linecap="round" stroke-linejoin="round"/>
<path d="M324.85 417.05C324.174 416.956 323.486 417.077 322.881 417.394C322.277 417.711 321.787 418.21 321.48 418.82C320.32 421.49 321.72 423.14 323.65 423.11C325.58 423.08 327.18 419.29 325.99 417.77C325.71 417.4 325.305 417.144 324.85 417.05Z" fill="#8C8C8C" stroke="#263238" stroke-linecap="round" stroke-linejoin="round"/>
<path d="M329.94 418C329.264 417.909 328.576 418.031 327.973 418.348C327.369 418.665 326.879 419.162 326.57 419.77C325.4 422.45 326.81 424.1 328.73 424.06C330.65 424.02 332.27 420.24 331.07 418.72C330.794 418.35 330.392 418.094 329.94 418Z" fill="#8C8C8C" stroke="#263238" stroke-linecap="round" stroke-linejoin="round"/>
<path d="M335.14 418.54C334.48 418.454 333.81 418.575 333.221 418.884C332.633 419.194 332.154 419.678 331.85 420.27C330.71 422.88 332.08 424.49 333.96 424.46C335.84 424.43 337.41 420.73 336.25 419.25C335.971 418.895 335.58 418.645 335.14 418.54Z" fill="#8C8C8C" stroke="#263238" stroke-linecap="round" stroke-linejoin="round"/>
<path d="M241.3 151.54C245.82 149.8 250.765 149.486 255.47 150.64C263.55 152.52 262.74 153.33 265.97 153.33" stroke="#263238" stroke-linecap="round" stroke-linejoin="round"/>
<path d="M265.44 150.91C265.44 150.91 265.17 153.6 268.94 155.22" stroke="#263238" stroke-linecap="round" stroke-linejoin="round"/>
<path d="M283.66 155.39C283.66 155.39 290.76 149.56 286.45 141.48" stroke="#263238" stroke-linecap="round" stroke-linejoin="round"/>
<path d="M241.39 141.78C241.72 142.53 242.98 142.7 244.21 142.16C245.44 141.62 246.16 140.58 245.83 139.83C245.5 139.08 244.24 138.91 243.02 139.45C241.8 139.99 241.06 141 241.39 141.78Z" stroke="#263238" stroke-linecap="round" stroke-linejoin="round"/>
<path d="M270.521 134.5C270.521 134.5 271.441 131.42 267.451 132.04C263.461 132.66 265.301 135.72 265.301 135.72L270.521 134.5Z" fill="white" stroke="#263238" stroke-linecap="round" stroke-linejoin="round"/>
<path d="M265.601 137C265.601 137 271.131 139.46 273.901 136.39" stroke="#263238" stroke-linecap="round" stroke-linejoin="round"/>
<path d="M267.35 132.06C267.659 132.274 267.911 132.559 268.085 132.892C268.259 133.224 268.35 133.594 268.35 133.97C268.351 134.356 268.258 134.737 268.08 135.08L265.33 135.72C265.33 135.72 263.49 132.71 267.35 132.06Z" fill="#263238" stroke="#263238" stroke-linecap="round" stroke-linejoin="round"/>
<path d="M388.89 330.15C388.89 330.15 387.96 343.15 390.13 351.56C392.3 359.97 396.34 358.39 395.41 372.36C394.48 386.33 389.82 397.5 389.82 408.05C389.82 418.6 392.31 425.12 389.82 429.77C387.33 434.42 371.82 435.05 365.93 433.19C360.04 431.33 362.2 426.36 365 418C367.8 409.64 370.28 383.55 368.42 376.72C366.56 369.89 365.31 362.14 364.07 359.65C362.83 357.16 344.52 343.51 343.9 331.41C343.28 319.31 347.9 315.27 347.9 315.27" fill="#37474F"/>
<path d="M388.89 330.15C388.89 330.15 387.96 343.15 390.13 351.56C392.3 359.97 396.34 358.39 395.41 372.36C394.48 386.33 389.82 397.5 389.82 408.05C389.82 418.6 392.31 425.12 389.82 429.77C387.33 434.42 371.82 435.05 365.93 433.19C360.04 431.33 362.2 426.36 365 418C367.8 409.64 370.28 383.55 368.42 376.72C366.56 369.89 365.31 362.14 364.07 359.65C362.83 357.16 344.52 343.51 343.9 331.41C343.28 319.31 347.9 315.27 347.9 315.27" stroke="#263238" stroke-linecap="round" stroke-linejoin="round"/>
<path d="M366.4 427.16C365.621 427.049 364.828 427.182 364.128 427.54C363.428 427.898 362.855 428.464 362.49 429.16C361.13 432.28 362.76 434.16 365 434.16C367.24 434.16 369.11 429.72 367.72 427.95C367.386 427.54 366.919 427.26 366.4 427.16Z" fill="#8C8C8C" stroke="#263238" stroke-linecap="round" stroke-linejoin="round"/>
<path d="M372.31 428.21C371.525 428.104 370.726 428.245 370.024 428.612C369.322 428.979 368.751 429.555 368.39 430.26C367.04 433.38 368.67 435.26 370.91 435.26C373.15 435.26 375.02 430.82 373.63 429.05C373.305 428.621 372.837 428.323 372.31 428.21Z" fill="#8C8C8C" stroke="#263238" stroke-linecap="round" stroke-linejoin="round"/>
<path d="M378.35 428.9C377.585 428.795 376.806 428.932 376.121 429.29C375.437 429.649 374.881 430.211 374.53 430.9C373.21 433.9 374.8 435.8 376.98 435.77C379.16 435.74 380.98 431.44 379.64 429.71C379.32 429.296 378.863 429.009 378.35 428.9Z" fill="#8C8C8C" stroke="#263238" stroke-linecap="round" stroke-linejoin="round"/>
<path d="M348.43 267.77C349.485 272.579 351.023 277.27 353.02 281.77" stroke="#263238" stroke-linecap="round" stroke-linejoin="round"/>
<path d="M370.37 279.17C374.838 279.17 378.46 276.73 378.46 273.72C378.46 270.71 374.838 268.27 370.37 268.27C365.902 268.27 362.28 270.71 362.28 273.72C362.28 276.73 365.902 279.17 370.37 279.17Z" fill="white"/>
<path d="M377.47 261.66C377.47 263.3 379.76 264.66 382.59 264.66C385.42 264.66 387.71 263.33 387.71 261.66C387.71 259.99 385.42 258.66 382.59 258.66C379.76 258.66 377.47 260 377.47 261.66Z" fill="white"/>
<path d="M394 270.42C394 271.97 396.59 273.22 399.78 273.22C402.97 273.22 405.56 271.97 405.56 270.42C405.56 268.87 402.97 267.61 399.78 267.61C396.59 267.61 394 268.86 394 270.42Z" fill="white"/>
<path d="M395 257.53C395 259.45 397.66 261 400.95 261C404.24 261 406.89 259.45 406.89 257.53C406.89 255.61 404.23 254.06 400.95 254.06C397.67 254.06 395 255.61 395 257.53Z" fill="white"/>
<path d="M414.14 269.59C415.78 269.59 417.11 268.556 417.11 267.28C417.11 266.004 415.78 264.97 414.14 264.97C412.5 264.97 411.17 266.004 411.17 267.28C411.17 268.556 412.5 269.59 414.14 269.59Z" fill="white"/>
<path d="M423.591 274.64C423.081 276.2 424.361 278.02 426.441 278.69C428.521 279.36 430.621 278.69 431.131 277.09C431.641 275.49 430.361 273.71 428.281 273.09C426.201 272.47 424.091 273.08 423.591 274.64Z" fill="white"/>
<path d="M417.78 260.36C417.38 261.6 418.78 263.17 420.98 263.88C423.18 264.59 425.24 264.15 425.64 262.88C426.04 261.61 424.64 260.07 422.44 259.36C420.24 258.65 418.18 259.12 417.78 260.36Z" fill="white"/>
<path d="M456.64 306.53C455.9 307.6 456.82 309.53 458.69 310.82C460.56 312.11 462.69 312.3 463.43 311.23C464.17 310.16 463.25 308.23 461.38 306.94C459.51 305.65 457.38 305.46 456.64 306.53Z" fill="white"/>
<path d="M460.41 314.22C459.96 314.88 460.52 316.05 461.68 316.85C462.84 317.65 464.13 317.76 464.58 317.1C465.03 316.44 464.47 315.27 463.32 314.47C462.17 313.67 460.87 313.56 460.41 314.22Z" fill="white"/>
<path d="M470.43 321.22C469.98 321.88 470.54 323.05 471.7 323.85C472.86 324.65 474.15 324.76 474.6 324.1C475.05 323.44 474.49 322.27 473.34 321.47C472.19 320.67 470.89 320.56 470.43 321.22Z" fill="white"/>
<path d="M460.191 321.22C459.741 321.88 460.301 323.05 461.451 323.85C462.601 324.65 463.911 324.76 464.361 324.1C464.811 323.44 464.251 322.27 463.101 321.47C461.951 320.67 460.651 320.56 460.191 321.22Z" fill="white"/>
<path d="M338.39 253.18C337.13 253.5 336.54 255.54 337.09 257.76C337.64 259.98 339.09 261.52 340.37 261.21C341.65 260.9 342.22 258.85 341.67 256.63C341.12 254.41 339.66 252.87 338.39 253.18Z" fill="white"/>
<path d="M342 264.09C340.73 264.4 340.15 266.45 340.7 268.66C341.25 270.87 342.7 272.42 343.97 272.11C345.24 271.8 345.82 269.75 345.27 267.53C344.72 265.31 343.29 263.77 342 264.09Z" fill="white"/>
<path d="M334.43 221.47C333.16 221.78 332.58 223.83 333.13 226.04C333.68 228.25 335.13 229.8 336.41 229.49C337.69 229.18 338.25 227.13 337.7 224.91C337.15 222.69 335.69 221.16 334.43 221.47Z" fill="white"/>
<path d="M336.13 261.45C335.35 261.64 335 262.89 335.33 264.25C335.66 265.61 336.57 266.56 337.33 266.37C338.09 266.18 338.47 264.92 338.13 263.56C337.79 262.2 336.91 261.25 336.13 261.45Z" fill="white"/>
<path d="M336 237.25C335.22 237.44 334.87 238.69 335.2 240.05C335.53 241.41 336.44 242.36 337.2 242.17C337.96 241.98 338.34 240.72 338 239.36C337.66 238 336.73 237.05 336 237.25Z" fill="white"/>
<path d="M340.771 244.35C339.991 244.54 339.641 245.8 339.971 247.16C340.301 248.52 341.211 249.46 341.971 249.27C342.731 249.08 343.111 247.82 342.771 246.46C342.431 245.1 341.541 244.16 340.771 244.35Z" fill="white"/>
<path d="M450.17 298.36C449.72 299.02 450.28 300.2 451.43 300.99C452.58 301.78 453.89 301.9 454.34 301.24C454.79 300.58 454.23 299.41 453.08 298.61C451.93 297.81 450.63 297.7 450.17 298.36Z" fill="white"/>
<path d="M258.1 151.19C258.322 154.977 258.322 158.773 258.1 162.56C257.75 169.56 261.1 163.44 261.1 163.44C261.1 163.44 261.97 171.84 263.55 169.57C265.13 167.3 263.72 157.84 263.72 157.84C263.72 157.84 265.82 163.27 266 159.59C266.038 157.281 265.227 155.039 263.72 153.29L258.1 151.19Z" fill="#37474F"/>
<mask id="mask2_147_36" style="mask-type:luminance" maskUnits="userSpaceOnUse" x="258" y="151" width="9" height="19">
<path d="M258.1 151.19C258.322 154.977 258.322 158.773 258.1 162.56C257.75 169.56 261.1 163.44 261.1 163.44C261.1 163.44 261.97 171.84 263.55 169.57C265.13 167.3 263.72 157.84 263.72 157.84C263.72 157.84 265.82 163.27 266 159.59C266.038 157.281 265.227 155.039 263.72 153.29L258.1 151.19Z" fill="white"/>
</mask>
<g mask="url(#mask2_147_36)">
<path opacity="0.4" d="M258.1 151.19C258.322 154.977 258.322 158.773 258.1 162.56C257.75 169.56 261.1 163.44 261.1 163.44C261.1 163.44 261.97 171.84 263.55 169.57C265.13 167.3 263.72 157.84 263.72 157.84C263.72 157.84 265.82 163.27 266 159.59C266.038 157.281 265.227 155.039 263.72 153.29L258.1 151.19Z" fill="white"/>
</g>
<path d="M258.1 151.19C258.322 154.977 258.322 158.773 258.1 162.56C257.75 169.56 261.1 163.44 261.1 163.44C261.1 163.44 261.97 171.84 263.55 169.57C265.13 167.3 263.72 157.84 263.72 157.84C263.72 157.84 265.82 163.27 266 159.59C266.038 157.281 265.227 155.039 263.72 153.29L258.1 151.19Z" stroke="#263238" stroke-linecap="round" stroke-linejoin="round"/>
<path d="M186 441C235.153 441 275 436.971 275 432C275 427.029 235.153 423 186 423C136.847 423 97 427.029 97 432C97 436.971 136.847 441 186 441Z" fill="#263238"/>
<path d="M256.1 431.35C256.1 431.35 255.48 428.63 253.87 427.88C252.374 427.409 250.808 427.199 249.24 427.26C247.99 426.69 246.97 425.58 243.97 422.17C240 417.71 235 406.68 235 406.68L238.42 385.94C233.17 383.57 218.2 387.51 220.3 392.24C222.4 396.97 220.04 407.73 222.4 411.14C224.76 414.55 231.07 422.7 231.07 422.7C231.14 423.936 231.314 425.163 231.59 426.37C232.12 429 234.22 426.64 236.32 426.9C238.42 427.16 241.83 432.15 243.93 432.68C245.84 432.996 247.78 433.083 249.71 432.94C249.71 432.94 253.62 432.94 254.15 431.84C255.13 431.62 256.1 431.35 256.1 431.35Z" fill="#666666" stroke="#263238" stroke-linecap="round" stroke-linejoin="round"/>
<path d="M136.309 366.51C136.309 366.51 140.519 377.27 135.259 385.15C129.999 393.03 123.449 393.81 124.759 398.28C126.069 402.75 122.399 420.33 122.399 424.28C122.399 428.23 124.759 425.33 124.759 425.33C124.759 425.33 129.489 428.75 130.539 430.06C131.589 431.37 146.539 431.11 146.539 431.11H147.859C147.692 429.6 147.149 428.156 146.279 426.91C144.969 425.33 142.869 425.33 141.029 424.55C139.189 423.77 136.569 420.34 136.299 418.77C136.029 417.2 138.139 407.77 139.449 405.38C140.759 402.99 153.109 398.03 157.309 394.09C161.509 390.15 165.189 380.17 163.869 377.02C162.549 373.87 142.349 359.15 136.309 366.51Z" fill="#666666" stroke="#263238" stroke-linecap="round" stroke-linejoin="round"/>
<path d="M292.46 379.81C286.594 379.414 280.753 378.713 274.96 377.71C267.96 376.31 253.6 375.61 247.96 380.16C242.32 384.71 235.35 394.51 223.8 397.67C212.25 400.83 184.94 397.67 174.09 394.86C163.24 392.05 138.72 373.16 132.09 367.21C125.46 361.26 115.99 355.65 109.69 358.1C103.39 360.55 82.3998 366.16 64.5398 363C46.6798 359.84 23.5398 349 12.0298 332.54C0.519841 316.08 12.0298 329.74 21.4798 335C30.9298 340.26 49.8398 350.05 67.3398 345.85C84.8398 341.65 112.16 317.14 131.76 309.44C151.36 301.74 160.82 300.33 173.76 303.49C186.7 306.65 189.86 308.04 189.86 308.04C189.86 308.04 216.47 309.79 224.86 315.74C233.25 321.69 243.77 330.44 243.77 330.44C243.77 330.44 245.87 339.9 260.22 351.44C274.57 362.98 274.58 364.04 281.22 367.55C287.86 371.06 292.09 374.77 292.46 379.81Z" fill="#8C8C8C"/>
<mask id="mask3_147_36" style="mask-type:luminance" maskUnits="userSpaceOnUse" x="7" y="301" width="286" height="98">
<path d="M292.46 379.81C286.594 379.414 280.753 378.713 274.96 377.71C267.96 376.31 253.6 375.61 247.96 380.16C242.32 384.71 235.35 394.51 223.8 397.67C212.25 400.83 184.94 397.67 174.09 394.86C163.24 392.05 138.72 373.16 132.09 367.21C125.46 361.26 115.99 355.65 109.69 358.1C103.39 360.55 82.3998 366.16 64.5398 363C46.6798 359.84 23.5398 349 12.0298 332.54C0.519841 316.08 12.0298 329.74 21.4798 335C30.9298 340.26 49.8398 350.05 67.3398 345.85C84.8398 341.65 112.16 317.14 131.76 309.44C151.36 301.74 160.82 300.33 173.76 303.49C186.7 306.65 189.86 308.04 189.86 308.04C189.86 308.04 216.47 309.79 224.86 315.74C233.25 321.69 243.77 330.44 243.77 330.44C243.77 330.44 245.87 339.9 260.22 351.44C274.57 362.98 274.58 364.04 281.22 367.55C287.86 371.06 292.09 374.77 292.46 379.81Z" fill="white"/>
</mask>
<g mask="url(#mask3_147_36)">
<path d="M186.47 328.69C186.73 337.88 188.3 363.09 190.41 363.62C192.52 364.15 195.919 346.55 197.229 338.41C198.539 330.27 203.8 322.13 206.69 316.88C208.12 314.27 210.01 312.37 211 310.88C204.062 309.519 197.05 308.578 190 308.06C189 311.36 186.25 321.17 186.47 328.69Z" fill="#37474F"/>
<path d="M176.75 352.33C178.59 351.54 176.75 339.72 177.01 331.33C177.22 324.89 181.11 311.69 182.92 305.86C180.63 305.22 177.65 304.44 173.78 303.5C171.369 302.9 168.92 302.462 166.45 302.19C165.97 306.75 165.84 323.11 168.61 333.43C171.5 344.19 174.91 353.11 176.75 352.33Z" fill="#37474F"/>
<path d="M151.28 326.33C159.68 333.16 159.42 336.33 158.9 332.33C158.48 329.2 155.74 310.14 154.63 302.46C149.067 303.427 143.609 304.924 138.33 306.93C139.42 310.47 143.38 319.91 151.28 326.33Z" fill="#37474F"/>
<path d="M104.33 325.26C100.86 327.56 97.3302 329.89 93.9502 332.13C96.6302 335.4 98.7902 336.81 104.02 341.3C109.53 346.02 112.42 345.24 112.42 345.24C112.42 345.24 110.06 338.93 108 334L104.33 325.26Z" fill="#37474F"/>
<path d="M278.56 370.81C267.68 367.46 250.93 366.21 243.39 373.32C235.85 380.43 220.39 392.24 199.39 392.16C178.39 392.08 157.54 375.7 139.1 365.79C120.66 355.88 124.45 348.62 118.17 348.62C111.89 348.62 90.5401 358.25 66.6701 358.25C57.3801 358.25 49.5101 358.25 43.0801 356.32C49.9401 359.398 57.1451 361.641 64.5401 363C82.4001 366.16 103.4 360.55 109.71 358.1C116.02 355.65 125.46 361.25 132.11 367.21C138.76 373.17 163.27 392.06 174.11 394.86C184.95 397.66 212.27 400.86 223.82 397.67C235.37 394.48 242.38 384.67 247.98 380.16C253.58 375.65 267.93 376.31 274.98 377.71C280.607 378.694 286.281 379.381 291.98 379.77C287.73 375.84 282.91 372.15 278.56 370.81Z" fill="white"/>
<path d="M224.89 315.74C223.137 314.595 221.236 313.693 219.24 313.06C216.24 318.64 209.05 333.25 210.52 342.06C212.36 353.06 211.31 366.48 212.62 367.27C213.93 368.06 218.92 356.76 220.23 348.89C221.29 342.56 228.77 329.12 232.23 321.22C229.8 319.32 227.26 317.42 224.89 315.74Z" fill="#37474F"/>
<path d="M84.0596 348.65C86.4196 349.96 94.0597 353.65 96.3997 353.65C98.7397 353.65 95.0896 351.02 92.4596 347.35C90.9896 345.29 88.0397 340.84 85.7197 337.35C82.9397 339.03 80.2396 340.55 77.6396 341.86C79.4396 344.17 81.8596 347.43 84.0596 348.65Z" fill="#37474F"/>
<path d="M130.54 338.93C130.54 338.93 129.22 335 127.39 328.43C126.21 324.24 124.39 317.69 123.24 313.5C119.11 315.75 114.79 318.42 110.4 321.26C112.404 324.831 114.748 328.2 117.4 331.32C120.88 335.165 125.474 337.826 130.54 338.93Z" fill="#37474F"/>
<path d="M44.22 344.8C42.6 344.36 41.01 343.86 39.46 343.32C39.8437 345.242 40.6348 347.059 41.78 348.65C43 350 43.78 347.31 44.22 344.8Z" fill="#37474F"/>
<path d="M51 346.27C52.13 348.34 55.2 353.38 55.2 353.38C55.343 352.775 55.343 352.145 55.2 351.54C55.2552 349.937 55.4832 348.344 55.88 346.79C54.22 346.7 52.59 346.52 51 346.27Z" fill="#37474F"/>
<path d="M66.73 350.75C66.579 349.2 66.2878 347.667 65.86 346.17C63.5983 346.603 61.3026 346.834 59 346.86L59.38 347.6C59.9 348.6 66.99 355.74 66.99 355.74C66.99 355.74 66.73 352.85 66.73 350.75Z" fill="#37474F"/>
<path d="M199.07 357.32C199.07 357.32 195.66 361.52 197.5 363.32C199.34 365.12 201.17 362.8 201.17 358.86C201.17 354.92 199.07 357.32 199.07 357.32Z" fill="#37474F"/>
<path d="M181 338.76C181 338.76 178.72 343.67 181 345C183.28 346.33 184.44 343.59 183.47 339.77C182.5 335.95 181 338.76 181 338.76Z" fill="#37474F"/>
<path d="M218 358.51C218 358.51 216.42 361.93 218 362.85C219.58 363.77 220.38 361.85 219.71 359.21C219.04 356.57 218 358.51 218 358.51Z" fill="#37474F"/>
<path d="M196.6 352.67C196.6 352.67 195.02 356.09 196.6 357.01C198.18 357.93 198.99 356.01 198.31 353.38C197.63 350.75 196.6 352.67 196.6 352.67Z" fill="#37474F"/>
</g>
<path d="M292.46 379.81C286.594 379.414 280.753 378.713 274.96 377.71C267.96 376.31 253.6 375.61 247.96 380.16C242.32 384.71 235.35 394.51 223.8 397.67C212.25 400.83 184.94 397.67 174.09 394.86C163.24 392.05 138.72 373.16 132.09 367.21C125.46 361.26 115.99 355.65 109.69 358.1C103.39 360.55 82.3998 366.16 64.5398 363C46.6798 359.84 23.5398 349 12.0298 332.54C0.519841 316.08 12.0298 329.74 21.4798 335C30.9298 340.26 49.8398 350.05 67.3398 345.85C84.8398 341.65 112.16 317.14 131.76 309.44C151.36 301.74 160.82 300.33 173.76 303.49C186.7 306.65 189.86 308.04 189.86 308.04C189.86 308.04 216.47 309.79 224.86 315.74C233.25 321.69 243.77 330.44 243.77 330.44C243.77 330.44 245.87 339.9 260.22 351.44C274.57 362.98 274.58 364.04 281.22 367.55C287.86 371.06 292.09 374.77 292.46 379.81Z" stroke="#263238" stroke-linecap="round" stroke-linejoin="round"/>
<path d="M278.55 343.54C278.55 343.54 273.94 350.31 281.01 352.76C288.08 355.21 302.52 347.85 305.01 335.55C301.353 338.575 297.129 340.839 292.585 342.211C288.042 343.583 283.27 344.035 278.55 343.54Z" fill="white" stroke="#263238" stroke-linecap="round" stroke-linejoin="round"/>
<path d="M251 314.83C251 314.83 244.61 308.44 244.31 310.08C244.183 312.11 244.233 314.148 244.46 316.17L242.68 318.1C242.68 318.1 237.18 313.2 236.88 315.1C236.58 317 240.3 323.72 240.3 323.72L238.51 325.51C238.51 325.51 229 324.32 229.3 326.51C229.6 328.7 235.24 332.45 235.24 332.45L234.35 336.76C234.35 336.76 227.81 338.1 227.35 339.59C226.89 341.08 233.59 343.59 233.59 343.59V348.79C233.59 348.79 227.05 350.87 228.39 352.66C229.73 354.45 234.6 355 234.6 355L235.34 359.6C235.34 359.6 229.55 362.6 229.84 364.21C230.13 365.82 236.24 365.85 236.68 365.85C237.12 365.85 234.9 371.34 236.38 372.09C237.86 372.84 240.25 369.26 240.25 369.26C240.25 369.26 236.25 350.68 240.69 338.35C245.13 326.02 249.91 319 249.91 319L251 314.83Z" fill="white" stroke="#263238" stroke-linecap="round" stroke-linejoin="round"/>
<path d="M282.69 349.51C282.69 349.51 283.31 343.06 278.39 339.37C275.106 337.062 271.31 335.586 267.33 335.07C267.33 335.07 263.33 330.46 259.64 326.46C255.95 322.46 252.58 313.86 248.89 313.86C245.2 313.86 236.59 316.93 232.89 336.6C229.19 356.27 237.8 371.6 239.96 370.41C242.12 369.22 244.57 365.49 249.48 364.26C254.39 363.03 256.55 364.26 256.55 364.26L257.17 371.33L264.23 368.26C264.23 368.26 266.39 371.33 275.61 373.79C284.83 376.25 287.28 375.94 289.43 378.71C290.837 380.591 291.977 382.657 292.82 384.85C292.82 384.85 298.35 381.78 298.96 376.25C299.57 370.72 300.5 368.87 298.65 365.18C297.924 363.878 296.911 362.759 295.688 361.908C294.464 361.057 293.063 360.497 291.59 360.27C290.316 360.005 289.078 359.592 287.9 359.04C287.9 359.04 282.69 351.35 282.69 349.51Z" fill="#8C8C8C" stroke="#263238" stroke-linecap="round" stroke-linejoin="round"/>
<path d="M270.85 336.21C270.85 336.21 267.91 340.21 271.02 345.39" stroke="#263238" stroke-linecap="round" stroke-linejoin="round"/>
<path d="M295.12 374.37C295.035 374.556 294.895 374.711 294.72 374.816C294.544 374.92 294.34 374.968 294.136 374.952C293.933 374.937 293.738 374.86 293.58 374.731C293.421 374.603 293.306 374.428 293.249 374.232C293.192 374.036 293.197 373.827 293.263 373.633C293.329 373.44 293.453 373.271 293.617 373.15C293.782 373.029 293.98 372.961 294.184 372.956C294.388 372.95 294.589 373.008 294.76 373.12C294.973 373.238 295.131 373.436 295.199 373.67C295.266 373.905 295.238 374.156 295.12 374.37Z" fill="white" stroke="#263238" stroke-linecap="round" stroke-linejoin="round"/>
<path d="M269.79 353.2C269.79 353.2 268.86 350.12 272.86 350.74C276.86 351.36 275.01 354.43 275.01 354.43L269.79 353.2Z" fill="white" stroke="#263238" stroke-linecap="round" stroke-linejoin="round"/>
<path d="M274.7 355.66C274.7 355.66 269.17 358.12 266.41 355.04" stroke="#263238" stroke-linecap="round" stroke-linejoin="round"/>
<path d="M273 350.76C272.689 350.974 272.436 351.261 272.261 351.596C272.087 351.93 271.997 352.303 272 352.68C272.005 353.062 272.098 353.439 272.27 353.78L275.03 354.43C275.03 354.43 276.81 351.41 273 350.76Z" fill="#263238" stroke="#263238" stroke-linecap="round" stroke-linejoin="round"/>
<path d="M274.4 337.83C274.4 337.83 269.79 344.59 276.85 347.05C283.91 349.51 298.37 342.13 300.85 329.84C297.193 332.863 292.971 335.127 288.429 336.499C283.888 337.871 279.118 338.324 274.4 337.83Z" fill="white" stroke="#263238" stroke-linecap="round" stroke-linejoin="round"/>
<path d="M303.23 357.06C301.816 358.902 299.963 360.359 297.84 361.3C294.58 362.61 294.25 363.75 295.72 366.03C297.19 368.31 299.31 367.34 300.94 365.87C302.57 364.4 304.05 361.14 303.23 357.06Z" fill="white" stroke="#263238" stroke-linecap="round" stroke-linejoin="round"/>
<path d="M205.57 374.86C205.57 374.86 200.07 391.6 196.48 396.14C192.89 400.68 194.33 403.07 196.25 405.46C198.17 407.85 203.18 416.22 203.18 418.14C203.18 420.06 200.07 423.87 201.51 424.35C202.95 424.83 204.85 422.92 204.85 422.92C204.85 422.92 204.13 429.37 206.05 431.05C207.97 432.73 214.18 433.44 215.61 429.13C217.04 424.82 215.61 414.79 214.89 411.92C214.17 409.05 212.02 402.12 212.02 402.12C212.02 402.12 224.22 400.68 228.52 383.23" fill="#8C8C8C"/>
<path d="M205.57 374.86C205.57 374.86 200.07 391.6 196.48 396.14C192.89 400.68 194.33 403.07 196.25 405.46C198.17 407.85 203.18 416.22 203.18 418.14C203.18 420.06 200.07 423.87 201.51 424.35C202.95 424.83 204.85 422.92 204.85 422.92C204.85 422.92 204.13 429.37 206.05 431.05C207.97 432.73 214.18 433.44 215.61 429.13C217.04 424.82 215.61 414.79 214.89 411.92C214.17 409.05 212.02 402.12 212.02 402.12C212.02 402.12 224.22 400.68 228.52 383.23" stroke="#263238" stroke-linecap="round" stroke-linejoin="round"/>
<path d="M206.84 428.24C206.84 428.24 205 432 205.38 432.8C205.76 433.6 208.03 432.62 208.57 430.52C209.11 428.42 208.66 428.15 206.84 428.24Z" fill="white" stroke="#263238" stroke-linecap="round" stroke-linejoin="round"/>
<path d="M210.85 429.79C210.85 429.79 210.3 433.79 210.67 433.98C211.04 434.17 212.95 432.8 213.4 430.98C213.85 429.16 210.85 429.79 210.85 429.79Z" fill="white" stroke="#263238" stroke-linecap="round" stroke-linejoin="round"/>
<path d="M215 430.52C215 430.52 215.73 433.89 216.28 433.07C216.83 432.25 217.01 428.7 216.46 427.97C215.91 427.24 215 429.06 215 430.52Z" fill="white" stroke="#263238" stroke-linecap="round" stroke-linejoin="round"/>
<path d="M175.149 426.75C177.434 427.488 179.623 428.495 181.669 429.75C184.259 431.47 184.009 432.75 184.009 432.75L178.099 432.5C178.099 432.5 176.619 427.37 175.149 426.75Z" fill="white" stroke="#263238" stroke-linecap="round" stroke-linejoin="round"/>
<path d="M167.56 341C167.56 341 183.84 367.79 180.95 382.49C180.066 386.846 178.308 390.976 175.781 394.633C173.255 398.289 170.012 401.394 166.25 403.76C166.25 403.76 168.42 420.76 169.66 422.14C174.53 427.58 179.78 427.19 180.56 429.55C180.882 430.668 181.339 431.742 181.92 432.75C181.92 432.75 175.44 432.38 170.71 432.38C165.98 432.38 163.62 431.6 163.1 429.76C162.58 427.92 160.47 425.29 158.37 425.03C156.27 424.77 154.69 428.71 154.43 426.34C154.17 423.97 155.43 416.63 155.43 416.63C155.43 416.63 153.33 412.69 151.76 408.75C150.19 404.81 151.49 401.92 152.81 396.67C154.13 391.42 152.28 384.86 146.5 380.13C140.72 375.4 131.8 364.9 129.96 354.4" fill="#8C8C8C"/>
<mask id="mask4_147_36" style="mask-type:luminance" maskUnits="userSpaceOnUse" x="129" y="341" width="53" height="92">
<path d="M167.56 341C167.56 341 183.84 367.79 180.95 382.49C180.066 386.846 178.308 390.976 175.781 394.633C173.255 398.289 170.012 401.394 166.25 403.76C166.25 403.76 168.42 420.76 169.66 422.14C174.53 427.58 179.78 427.19 180.56 429.55C180.882 430.668 181.339 431.742 181.92 432.75C181.92 432.75 175.44 432.38 170.71 432.38C165.98 432.38 163.62 431.6 163.1 429.76C162.58 427.92 160.47 425.29 158.37 425.03C156.27 424.77 154.69 428.71 154.43 426.34C154.17 423.97 155.43 416.63 155.43 416.63C155.43 416.63 153.33 412.69 151.76 408.75C150.19 404.81 151.49 401.92 152.81 396.67C154.13 391.42 152.28 384.86 146.5 380.13C140.72 375.4 131.8 364.9 129.96 354.4" fill="white"/>
</mask>
<g mask="url(#mask4_147_36)">
<path d="M169.921 345.76C169.921 345.76 159.921 343.4 153.121 346.02C146.321 348.64 140.781 352.85 144.451 352.85C148.121 352.85 153.381 349.44 163.101 352.59C172.821 355.74 174.911 355.48 174.911 355.48C174.911 355.48 170.451 347.34 169.921 345.76Z" fill="#37474F"/>
<path d="M178.591 365.19C178.591 365.19 175.701 362 167.001 362C158.301 362 152.551 368 154.651 368C156.751 368 169.651 367.48 173.301 369.31C176.951 371.14 179.601 373.78 180.391 373.25C181.181 372.72 178.331 366.77 178.591 365.19Z" fill="#37474F"/>
<path d="M181.001 382.52C181.001 382.52 177.331 378.85 170.761 379.9C164.191 380.95 166.041 382.26 167.871 382.26C169.701 382.26 175.231 384.62 176.541 385.67C177.851 386.72 177.541 389.09 179.161 387.77C180.781 386.45 181.001 382.52 181.001 382.52Z" fill="#37474F"/>
<path d="M163.1 374.65C163.1 374.65 153.64 374.38 157.58 375.7C161.52 377.02 166.77 377.27 167.04 375.43C167.31 373.59 163.1 374.65 163.1 374.65Z" fill="#37474F"/>
<path d="M148.13 355.21C148.13 355.21 139.99 358.1 142.88 358.89C145.77 359.68 152.07 357.84 152.07 356.26C152.07 354.68 148.13 355.21 148.13 355.21Z" fill="#37474F"/>
</g>
<path d="M167.56 341C167.56 341 183.84 367.79 180.95 382.49C180.066 386.846 178.308 390.976 175.781 394.633C173.255 398.289 170.012 401.394 166.25 403.76C166.25 403.76 168.42 420.76 169.66 422.14C174.53 427.58 179.78 427.19 180.56 429.55C180.882 430.668 181.339 431.742 181.92 432.75C181.92 432.75 175.44 432.38 170.71 432.38C165.98 432.38 163.62 431.6 163.1 429.76C162.58 427.92 160.47 425.29 158.37 425.03C156.27 424.77 154.69 428.71 154.43 426.34C154.17 423.97 155.43 416.63 155.43 416.63C155.43 416.63 153.33 412.69 151.76 408.75C150.19 404.81 151.49 401.92 152.81 396.67C154.13 391.42 152.28 384.86 146.5 380.13C140.72 375.4 131.8 364.9 129.96 354.4" stroke="#263238" stroke-linecap="round" stroke-linejoin="round"/>
<path d="M172.07 428.72C172.07 428.72 169.98 429.83 170.35 430.94C170.72 432.05 172.07 432.66 174.16 432.78C176.25 432.9 179.45 432.91 179.45 432.91C179.45 432.91 177.12 427.74 172.07 428.72Z" fill="white" stroke="#263238" stroke-linecap="round" stroke-linejoin="round"/>
</svg>
